<svg width="90" height="24" viewBox="0 0 90 24" fill="none" xmlns="http://www.w3.org/2000/svg">
<path fill-rule="evenodd" clip-rule="evenodd" d="M8.45923 23.0451H0.392883V0.955115H8.45923C15.5766 0.955115 20.4797 5.84646 20.4797 12.0001C20.4797 18.1537 15.5766 23.0451 8.45923 23.0451ZM5.13779 5.3731V18.6271H8.45923C12.8878 18.6271 15.5766 15.9447 15.5766 12.0001C15.5766 8.05545 12.8878 5.3731 8.45923 5.3731H5.13779Z" fill="black"/>
<path d="M40.2612 23.0451H23.6541V9.78436L28.399 9.78436V9.79109H37.8888V13.8935H28.399V18.6271H40.2612V23.0451Z" fill="black"/>
<path d="M23.6541 5.37057V0.955115H40.2612V5.3731H35.3937V5.37057L23.6541 5.37057Z" fill="black"/>
<path fill-rule="evenodd" clip-rule="evenodd" d="M49.1879 23.0451H44.443V0.955115H54.7236C60.1012 0.955115 63.5808 4.42639 63.5808 8.68659C63.5808 12.9468 60.1012 16.4181 54.7236 16.4181H49.1879V23.0451ZM49.1879 5.3731V12.0001H54.5654C57.2542 12.0001 58.6777 10.58 58.6777 8.68659C58.6777 6.79317 57.2542 5.3731 54.5654 5.3731H49.1879Z" fill="black"/>
<path fill-rule="evenodd" clip-rule="evenodd" d="M77.8217 23.6762C70.8625 23.6762 65.6431 18.4693 65.6431 12.0001C65.6431 5.53089 70.8625 0.323975 77.8217 0.323975C84.7809 0.323975 90.0003 5.53089 90.0003 12.0001C90.0003 18.4693 84.7809 23.6762 77.8217 23.6762ZM77.8217 4.74196C73.7094 4.74196 70.7043 7.73988 70.7043 12.0001C70.7043 16.2603 73.7094 19.2582 77.8217 19.2582C81.9339 19.2582 84.939 16.2603 84.939 12.0001C84.939 7.73988 81.9339 4.74196 77.8217 4.74196Z" fill="black"/>
</svg>
