<svg width="392" height="240" viewBox="0 0 392 240" fill="none" xmlns="http://www.w3.org/2000/svg">
<rect width="392" height="240" rx="8" fill="#F5F9FE"/>
<path d="M85 120H307" stroke="white" stroke-width="20"/>
<g filter="url(#filter0_dd_76_3831)">
<path d="M232.75 72H159.25C156.351 72 154 74.3943 154 77.3479V110.317C154 149.792 186.939 164.794 194.476 167.71C195.475 168.097 196.525 168.097 197.524 167.71C205.061 164.794 238 149.792 238 110.317V77.3479C238 74.3943 235.649 72 232.75 72Z" fill="white"/>
</g>
<path d="M210.583 98.25H181.416C180.266 98.25 179.333 99.1827 179.333 100.333V113.177C179.333 128.555 192.404 134.399 195.395 135.535C195.791 135.686 196.208 135.686 196.604 135.535C199.595 134.399 212.666 128.555 212.666 113.177V100.333C212.666 99.1827 211.734 98.25 210.583 98.25Z" stroke="#3E8BF3" stroke-width="4.16667" stroke-linecap="round" stroke-linejoin="round"/>
<rect x="194" y="99" width="4" height="37" fill="#3E8BF3"/>
<g filter="url(#filter1_dd_76_3831)">
<path d="M83.9933 143.125H83.9928C71.2262 143.125 60.8739 132.77 60.875 120L83.9933 143.125ZM83.9933 143.125C96.7667 143.123 107.12 132.771 107.12 120.001M83.9933 143.125L107.12 120.001M107.12 120.001C107.12 107.23 96.7675 96.875 83.996 96.875C71.2255 96.875 60.872 107.227 60.875 119.999L107.12 120.001Z" fill="#EAB300" stroke="white" stroke-width="6.25"/>
<g filter="url(#filter2_dd_76_3831)">
<path d="M83.9933 143.125H83.9928C71.2262 143.125 60.8739 132.77 60.875 120L83.9933 143.125ZM83.9933 143.125C96.7667 143.123 107.12 132.771 107.12 120.001M83.9933 143.125L107.12 120.001M107.12 120.001C107.12 107.23 96.7675 96.875 83.996 96.875C71.2255 96.875 60.872 107.227 60.875 119.999L107.12 120.001Z" fill="#EAB300" stroke="white" stroke-width="6.25"/>
<path fill-rule="evenodd" clip-rule="evenodd" d="M91.8662 115.102C91.6086 112.423 89.2965 111.526 86.3748 111.27V107.553H84.1139V111.17C83.5202 111.17 82.9122 111.182 82.309 111.194V107.553H80.0481L80.0465 111.266L80.0223 111.267C79.541 111.276 79.0675 111.286 78.6065 111.286V111.274L75.4879 111.273V113.689C75.4879 113.689 77.1584 113.657 77.1296 113.687C78.0464 113.687 78.344 114.219 78.4304 114.678V118.912C78.4944 118.912 78.5761 118.915 78.6689 118.928H78.4304L78.4288 124.859C78.3888 125.147 78.2192 125.606 77.5792 125.608C77.608 125.633 75.9359 125.608 75.9359 125.608L75.4863 128.309H78.4304C78.7624 128.309 79.0914 128.312 79.4167 128.316H79.4169L79.4177 128.316C79.6284 128.318 79.8375 128.32 80.0449 128.322L80.0465 132.08H82.3058V128.362C82.925 128.374 83.525 128.379 84.1123 128.379L84.1107 132.08H86.3716V128.33C90.1733 128.112 92.8374 127.154 93.167 123.582C93.4342 120.707 92.0822 119.422 89.9237 118.904C91.2374 118.238 92.0582 117.062 91.8662 115.102ZM88.7012 123.137C88.7012 125.717 84.6448 125.658 82.7946 125.631H82.7945C82.6304 125.629 82.4836 125.627 82.3586 125.627V120.646C82.5149 120.646 82.7051 120.642 82.9208 120.637C84.8226 120.594 88.7012 120.507 88.7012 123.137ZM82.7368 118.373C84.2849 118.398 87.6484 118.451 87.6484 116.111C87.6498 113.717 84.4087 113.803 82.8242 113.845C82.6456 113.85 82.4881 113.854 82.3586 113.854V118.369C82.4665 118.369 82.5939 118.371 82.7368 118.373Z" fill="white"/>
<path d="M78.4336 118.812H78.7696V119.06H78.4336V118.812Z" fill="white"/>
<path d="M103.397 124.838C100.726 135.552 89.8741 142.073 79.1584 139.401C68.4472 136.73 61.9267 125.877 64.599 115.164C67.2689 104.448 78.1209 97.9273 88.8332 100.598C99.5481 103.27 106.068 114.123 103.397 124.838L103.397 124.838H103.397Z" fill="#50AF95"/>
<path fill-rule="evenodd" clip-rule="evenodd" d="M86.5309 122.268C86.3894 122.278 85.6588 122.322 84.0289 122.322C82.7326 122.322 81.8122 122.283 81.4893 122.268C76.4796 122.047 72.7402 121.175 72.7402 120.131C72.7402 119.087 76.4796 118.216 81.4893 117.992V121.399C81.8169 121.423 82.755 121.478 84.0513 121.478C85.6069 121.478 86.3859 121.413 86.5261 121.4V117.994C91.5253 118.217 95.2564 119.089 95.2564 120.131C95.2564 121.173 91.5265 122.045 86.5261 122.266L86.5309 122.268ZM86.5309 117.642V114.593H93.5075V109.944H74.5127V114.593H81.4881V117.641C75.8184 117.901 71.5547 119.024 71.5547 120.37C71.5547 121.716 75.8184 122.838 81.4881 123.099V132.869H86.5297V123.096C92.1864 122.835 96.4431 121.714 96.4431 120.369C96.4431 119.024 92.1899 117.902 86.5297 117.641L86.5309 117.642Z" fill="white"/>
</g>
</g>
<g filter="url(#filter3_dd_76_3831)">
<path d="M307.993 143.125H307.993C295.226 143.125 284.874 132.77 284.875 120L307.993 143.125ZM307.993 143.125C320.767 143.123 331.12 132.771 331.12 120.001M307.993 143.125L331.12 120.001M331.12 120.001C331.12 107.23 320.767 96.875 307.996 96.875C295.225 96.875 284.872 107.227 284.875 119.999L331.12 120.001Z" fill="#EAB300" stroke="white" stroke-width="6.25"/>
<path d="M327.402 124.838C324.731 135.552 313.879 142.073 303.163 139.401C292.452 136.73 285.932 125.877 288.604 115.164C291.274 104.448 302.126 97.9273 312.838 100.598C323.553 103.27 330.073 114.123 327.402 124.838L327.402 124.838H327.402Z" fill="#419300"/>
<g clip-path="url(#clip0_76_3831)">
<path d="M313.835 121.062C312.792 120.101 311.194 119.293 309.094 118.663C307.583 118.185 306.536 117.686 305.979 117.179C305.47 116.715 305.223 116.119 305.223 115.357C305.223 114.495 305.464 113.844 305.96 113.366C306.454 112.887 307.238 112.645 308.287 112.645C309.261 112.645 309.997 112.949 310.537 113.577C311.095 114.224 311.365 115.092 311.365 116.159C311.365 116.431 311.583 116.685 311.853 116.685H314.801C315.071 116.685 315.289 116.43 315.289 116.159C315.289 114.251 314.714 112.681 313.71 111.523C312.786 110.46 311.438 109.767 309.862 109.495V106.828C309.862 106.556 309.774 106.25 309.505 106.25H307.127C306.858 106.25 306.708 106.556 306.708 106.828V109.479C305.132 109.733 303.833 110.346 302.89 111.302C301.847 112.359 301.301 113.738 301.301 115.399C301.301 117.06 301.868 118.515 303.002 119.554C304.086 120.549 305.689 121.349 307.777 121.934C309.172 122.373 310.171 122.869 310.752 123.406C311.288 123.903 311.548 124.483 311.548 125.181C311.548 126.04 311.252 126.69 310.645 127.167C310.008 127.667 309.088 127.921 307.912 127.921C306.889 127.921 306.051 127.656 305.35 127.109C304.698 126.602 304.367 125.754 304.367 124.492C304.367 124.22 304.148 124.049 303.879 124.049H301.019C300.825 124.049 300.65 124.115 300.573 124.294L300.542 124.339C300.517 124.398 300.503 124.448 300.502 124.513C300.459 126.586 301.053 128.187 302.262 129.281C303.342 130.26 304.768 130.865 306.344 131.095V133.318C306.344 133.59 306.558 133.746 306.825 133.746H309.187C309.457 133.746 309.738 133.59 309.738 133.318V131.081C311.435 130.849 312.783 130.26 313.804 129.329C314.938 128.293 315.499 126.887 315.499 125.151C315.499 123.415 314.928 122.067 313.834 121.058L313.835 121.062Z" fill="white"/>
</g>
</g>
<path opacity="0.5" fill-rule="evenodd" clip-rule="evenodd" d="M139.172 115.464L142.354 118.646C142.549 118.842 142.549 119.158 142.354 119.353L139.172 122.535C138.976 122.731 138.66 122.731 138.464 122.535L138.5 119.5L120 119.5V118.5H138.464C138.464 117.892 138.464 115.464 138.464 115.464C138.66 115.269 138.976 115.269 139.172 115.464Z" fill="#3E8BF3"/>
<path opacity="0.5" fill-rule="evenodd" clip-rule="evenodd" d="M268.172 115.464L271.354 118.646C271.549 118.842 271.549 119.158 271.354 119.353L268.172 122.535C267.976 122.731 267.66 122.731 267.464 122.535L267.5 119.5L249 119.5V118.5H267.464C267.464 117.892 267.464 115.464 267.464 115.464C267.66 115.269 267.976 115.269 268.172 115.464Z" fill="#3E8BF3"/>
<defs>
<filter id="filter0_dd_76_3831" x="138" y="64" width="116" height="128" filterUnits="userSpaceOnUse" color-interpolation-filters="sRGB">
<feFlood flood-opacity="0" result="BackgroundImageFix"/>
<feColorMatrix in="SourceAlpha" type="matrix" values="0 0 0 0 0 0 0 0 0 0 0 0 0 0 0 0 0 0 127 0" result="hardAlpha"/>
<feOffset dy="8"/>
<feGaussianBlur stdDeviation="8"/>
<feColorMatrix type="matrix" values="0 0 0 0 0 0 0 0 0 0 0 0 0 0 0 0 0 0 0.08 0"/>
<feBlend mode="normal" in2="BackgroundImageFix" result="effect1_dropShadow_76_3831"/>
<feColorMatrix in="SourceAlpha" type="matrix" values="0 0 0 0 0 0 0 0 0 0 0 0 0 0 0 0 0 0 127 0" result="hardAlpha"/>
<feOffset/>
<feGaussianBlur stdDeviation="2"/>
<feColorMatrix type="matrix" values="0 0 0 0 0 0 0 0 0 0 0 0 0 0 0 0 0 0 0.04 0"/>
<feBlend mode="normal" in2="effect1_dropShadow_76_3831" result="effect2_dropShadow_76_3831"/>
<feBlend mode="normal" in="SourceGraphic" in2="effect2_dropShadow_76_3831" result="shape"/>
</filter>
<filter id="filter1_dd_76_3831" x="41.75" y="85.75" width="84.4952" height="84.5" filterUnits="userSpaceOnUse" color-interpolation-filters="sRGB">
<feFlood flood-opacity="0" result="BackgroundImageFix"/>
<feColorMatrix in="SourceAlpha" type="matrix" values="0 0 0 0 0 0 0 0 0 0 0 0 0 0 0 0 0 0 127 0" result="hardAlpha"/>
<feOffset dy="8"/>
<feGaussianBlur stdDeviation="8"/>
<feColorMatrix type="matrix" values="0 0 0 0 0 0 0 0 0 0 0 0 0 0 0 0 0 0 0.08 0"/>
<feBlend mode="normal" in2="BackgroundImageFix" result="effect1_dropShadow_76_3831"/>
<feColorMatrix in="SourceAlpha" type="matrix" values="0 0 0 0 0 0 0 0 0 0 0 0 0 0 0 0 0 0 127 0" result="hardAlpha"/>
<feOffset/>
<feGaussianBlur stdDeviation="2"/>
<feColorMatrix type="matrix" values="0 0 0 0 0 0 0 0 0 0 0 0 0 0 0 0 0 0 0.04 0"/>
<feBlend mode="normal" in2="effect1_dropShadow_76_3831" result="effect2_dropShadow_76_3831"/>
<feBlend mode="normal" in="SourceGraphic" in2="effect2_dropShadow_76_3831" result="shape"/>
</filter>
<filter id="filter2_dd_76_3831" x="41.75" y="85.75" width="84.4952" height="84.5" filterUnits="userSpaceOnUse" color-interpolation-filters="sRGB">
<feFlood flood-opacity="0" result="BackgroundImageFix"/>
<feColorMatrix in="SourceAlpha" type="matrix" values="0 0 0 0 0 0 0 0 0 0 0 0 0 0 0 0 0 0 127 0" result="hardAlpha"/>
<feOffset dy="8"/>
<feGaussianBlur stdDeviation="8"/>
<feColorMatrix type="matrix" values="0 0 0 0 0 0 0 0 0 0 0 0 0 0 0 0 0 0 0.08 0"/>
<feBlend mode="normal" in2="BackgroundImageFix" result="effect1_dropShadow_76_3831"/>
<feColorMatrix in="SourceAlpha" type="matrix" values="0 0 0 0 0 0 0 0 0 0 0 0 0 0 0 0 0 0 127 0" result="hardAlpha"/>
<feOffset/>
<feGaussianBlur stdDeviation="2"/>
<feColorMatrix type="matrix" values="0 0 0 0 0 0 0 0 0 0 0 0 0 0 0 0 0 0 0.04 0"/>
<feBlend mode="normal" in2="effect1_dropShadow_76_3831" result="effect2_dropShadow_76_3831"/>
<feBlend mode="normal" in="SourceGraphic" in2="effect2_dropShadow_76_3831" result="shape"/>
</filter>
<filter id="filter3_dd_76_3831" x="265.75" y="85.75" width="84.4952" height="84.5" filterUnits="userSpaceOnUse" color-interpolation-filters="sRGB">
<feFlood flood-opacity="0" result="BackgroundImageFix"/>
<feColorMatrix in="SourceAlpha" type="matrix" values="0 0 0 0 0 0 0 0 0 0 0 0 0 0 0 0 0 0 127 0" result="hardAlpha"/>
<feOffset dy="8"/>
<feGaussianBlur stdDeviation="8"/>
<feColorMatrix type="matrix" values="0 0 0 0 0 0 0 0 0 0 0 0 0 0 0 0 0 0 0.08 0"/>
<feBlend mode="normal" in2="BackgroundImageFix" result="effect1_dropShadow_76_3831"/>
<feColorMatrix in="SourceAlpha" type="matrix" values="0 0 0 0 0 0 0 0 0 0 0 0 0 0 0 0 0 0 127 0" result="hardAlpha"/>
<feOffset/>
<feGaussianBlur stdDeviation="2"/>
<feColorMatrix type="matrix" values="0 0 0 0 0 0 0 0 0 0 0 0 0 0 0 0 0 0 0.04 0"/>
<feBlend mode="normal" in2="effect1_dropShadow_76_3831" result="effect2_dropShadow_76_3831"/>
<feBlend mode="normal" in="SourceGraphic" in2="effect2_dropShadow_76_3831" result="shape"/>
</filter>
<clipPath id="clip0_76_3831">
<rect width="15" height="27.5" fill="white" transform="translate(300.5 106.25)"/>
</clipPath>
</defs>
</svg>
