<svg width="392" height="240" viewBox="0 0 392 240" fill="none" xmlns="http://www.w3.org/2000/svg">
<rect width="392" height="240" rx="8" fill="#F5F9FE"/>
<g filter="url(#filter0_dd_76_3872)">
<rect x="124" y="88" width="144" height="64" rx="32" fill="white"/>
</g>
<path d="M233.333 126.667C238.488 126.667 242.667 122.488 242.667 117.333C242.667 112.179 238.488 108 233.333 108C228.179 108 224 112.179 224 117.333C224 122.488 228.179 126.667 233.333 126.667Z" stroke="#3E8BF3" stroke-width="2.66667" stroke-linecap="round" stroke-linejoin="round"/>
<path d="M240 124L248 132" stroke="#3E8BF3" stroke-width="2.66667" stroke-linecap="round" stroke-linejoin="round"/>
<path d="M156 132C162.627 132 168 126.627 168 120C168 113.373 162.627 108 156 108C149.373 108 144 113.373 144 120C144 126.627 149.373 132 156 132Z" stroke="#6FD6BD" stroke-width="2.66667" stroke-miterlimit="10" stroke-linecap="round" stroke-linejoin="round"/>
<path d="M150.667 120H161.333" stroke="#6FD6BD" stroke-width="2.66667" stroke-linecap="round" stroke-linejoin="round"/>
<path d="M156 125.333L156 114.667" stroke="#6FD6BD" stroke-width="2.66667" stroke-linecap="round" stroke-linejoin="round"/>
<path opacity="0.3" d="M196 64V175.5" stroke="#3E8BF3"/>
<defs>
<filter id="filter0_dd_76_3872" x="108" y="80" width="176" height="96" filterUnits="userSpaceOnUse" color-interpolation-filters="sRGB">
<feFlood flood-opacity="0" result="BackgroundImageFix"/>
<feColorMatrix in="SourceAlpha" type="matrix" values="0 0 0 0 0 0 0 0 0 0 0 0 0 0 0 0 0 0 127 0" result="hardAlpha"/>
<feOffset dy="8"/>
<feGaussianBlur stdDeviation="8"/>
<feColorMatrix type="matrix" values="0 0 0 0 0 0 0 0 0 0 0 0 0 0 0 0 0 0 0.08 0"/>
<feBlend mode="normal" in2="BackgroundImageFix" result="effect1_dropShadow_76_3872"/>
<feColorMatrix in="SourceAlpha" type="matrix" values="0 0 0 0 0 0 0 0 0 0 0 0 0 0 0 0 0 0 127 0" result="hardAlpha"/>
<feOffset/>
<feGaussianBlur stdDeviation="2"/>
<feColorMatrix type="matrix" values="0 0 0 0 0 0 0 0 0 0 0 0 0 0 0 0 0 0 0.04 0"/>
<feBlend mode="normal" in2="effect1_dropShadow_76_3872" result="effect2_dropShadow_76_3872"/>
<feBlend mode="normal" in="SourceGraphic" in2="effect2_dropShadow_76_3872" result="shape"/>
</filter>
</defs>
</svg>
